<?xml version="1.0" encoding="utf-8"?>
<!-- Generator: Adobe Illustrator 23.0.0, SVG Export Plug-In . SVG Version: 6.00 Build 0)  -->
<svg version="1.1" id="Vrstva_1" xmlns="http://www.w3.org/2000/svg" xmlns:xlink="http://www.w3.org/1999/xlink" x="0px" y="0px"
	 viewBox="0 0 12 5" style="enable-background:new 0 0 12 5;" xml:space="preserve">
<style type="text/css">
	.st0{fill:#286140;}
	.st1{opacity:0.3;clip-path:url(#SVGID_3_);}
	.st2{fill:#D2C6B7;}
	.st3{opacity:0.15;}
	.st4{clip-path:url(#SVGID_6_);}
	.st5{opacity:0.5;}
	.st6{opacity:0.3;clip-path:url(#SVGID_8_);}
	.st7{clip-path:url(#SVGID_11_);}
	.st8{opacity:0.3;clip-path:url(#SVGID_12_);}
	.st9{opacity:0.3;clip-path:url(#SVGID_13_);}
	.st10{opacity:0.3;clip-path:url(#SVGID_14_);}
	.st11{fill:#FFFFFF;}
	.st12{fill:none;stroke:#286140;stroke-width:0.9155;stroke-linecap:round;stroke-miterlimit:10;}
</style>
<path class="st2" d="M11.71,4.43c-0.01,0-1.38-0.08-2.72-0.64C7.25,3.06,6.37,1.88,6.37,0.28C6.37,0.13,6.23,0,6.06,0
	C6.04,0,6.02,0.01,6,0.01C5.98,0.01,5.96,0,5.94,0C5.77,0,5.63,0.13,5.63,0.28c0,1.59-0.88,2.77-2.62,3.51
	C1.67,4.35,0.31,4.43,0.29,4.43C0.12,4.44-0.01,4.57,0,4.73C0.01,4.88,0.15,5,0.31,5c0.01,0,0.01,0,0.02,0C0.38,5,4.88,4.73,6,1.73
	C7.12,4.73,11.62,5,11.67,5c0.01,0,0.01,0,0.02,0c0.16,0,0.3-0.12,0.31-0.27C12.01,4.57,11.88,4.44,11.71,4.43z"/>
</svg>
