<?xml version="1.0" encoding="utf-8"?>
<!-- Generator: Adobe Illustrator 23.0.0, SVG Export Plug-In . SVG Version: 6.00 Build 0)  -->
<svg version="1.1" id="Vrstva_1" xmlns="http://www.w3.org/2000/svg" xmlns:xlink="http://www.w3.org/1999/xlink" x="0px" y="0px"
	 viewBox="0 0 46 25" style="enable-background:new 0 0 46 25;" xml:space="preserve">
<style type="text/css">
	.st0{fill:#286140;}
	.st1{opacity:0.3;clip-path:url(#SVGID_3_);}
	.st2{fill:#D2C6B7;}
	.st3{opacity:0.15;}
	.st4{clip-path:url(#SVGID_6_);}
	.st5{opacity:0.5;}
	.st6{opacity:0.3;clip-path:url(#SVGID_8_);}
	.st7{clip-path:url(#SVGID_11_);}
	.st8{opacity:0.3;clip-path:url(#SVGID_12_);}
	.st9{opacity:0.3;clip-path:url(#SVGID_13_);}
	.st10{opacity:0.3;clip-path:url(#SVGID_14_);}
	.st11{fill:#FFFFFF;}
	.st12{fill:none;stroke:#286140;stroke-width:0.9155;stroke-linecap:round;stroke-miterlimit:10;}
</style>
<path class="st2" d="M46,12.38c0-0.36-0.26-0.64-0.59-0.64c-3.3,0-5.75-1.84-7.26-5.46c-1.17-2.79-1.33-5.64-1.33-5.67
	C36.8,0.25,36.52-0.02,36.2,0c-0.31,0.02-0.56,0.3-0.56,0.64c0,0.01,0,0.02,0,0.04c0,0.1,0.49,8.36,5.68,11.31H0v1.02h41.32
	c-5.19,2.95-5.67,11.21-5.68,11.31c0,0.01,0,0.02,0,0.04c0,0.34,0.24,0.62,0.56,0.64c0.32,0.02,0.6-0.25,0.62-0.61
	c0-0.03,0.16-2.88,1.33-5.67c1.52-3.62,3.96-5.46,7.26-5.46c0.33,0,0.59-0.29,0.59-0.64c0-0.04-0.02-0.08-0.02-0.12
	C45.98,12.46,46,12.42,46,12.38z"/>
</svg>
