<?xml version="1.0" encoding="utf-8"?>
<!-- Generator: Adobe Illustrator 23.0.0, SVG Export Plug-In . SVG Version: 6.00 Build 0)  -->
<svg version="1.1" id="Vrstva_1" xmlns="http://www.w3.org/2000/svg" xmlns:xlink="http://www.w3.org/1999/xlink" x="0px" y="0px"
	 viewBox="0 0 26 15" style="enable-background:new 0 0 26 15;" xml:space="preserve">
<style type="text/css">
	.st0{fill:#286140;}
	.st1{opacity:0.3;clip-path:url(#SVGID_3_);}
	.st2{fill:#D2C6B7;}
	.st3{opacity:0.15;}
	.st4{clip-path:url(#SVGID_6_);}
	.st5{opacity:0.5;}
	.st6{opacity:0.3;clip-path:url(#SVGID_8_);}
	.st7{clip-path:url(#SVGID_11_);}
	.st8{opacity:0.3;clip-path:url(#SVGID_12_);}
	.st9{opacity:0.3;clip-path:url(#SVGID_13_);}
	.st10{opacity:0.3;clip-path:url(#SVGID_14_);}
	.st11{fill:#FFFFFF;}
	.st12{fill:none;stroke:#286140;stroke-width:0.9155;stroke-linecap:round;stroke-miterlimit:10;}
</style>
<g>
	<path class="st0" d="M22.29,15H3.71c-2.04,0-3.7-1.66-3.7-3.7l0-7.6c0-2.04,1.66-3.7,3.7-3.7l18.58,0c2.04,0,3.7,1.66,3.7,3.7v7.6
		C25.99,13.34,24.34,15,22.29,15z"/>
	<path class="st11" d="M20.94,7.54l5.05-2.22V3.7c0,0,0-0.01,0-0.01L14.62,8.68c-0.98,0.43-2.09,0.42-3.06-0.02L0.04,3.39
		C0.03,3.49,0.01,3.59,0.01,3.7v1.32l5.86,2.68l-5.84,3.84c0.04,0.54,0.19,1.05,0.44,1.51l7.01-4.62l3.45,1.58
		c0.69,0.32,1.44,0.48,2.18,0.48c0.72,0,1.44-0.15,2.11-0.44l4.09-1.79l6.46,4.26c0.13-0.38,0.22-0.79,0.22-1.22v-0.43L20.94,7.54z"
		/>
</g>
</svg>
