<?xml version="1.0" encoding="utf-8"?>
<!-- Generator: Adobe Illustrator 23.0.0, SVG Export Plug-In . SVG Version: 6.00 Build 0)  -->
<svg version="1.1" id="Vrstva_1" xmlns="http://www.w3.org/2000/svg" xmlns:xlink="http://www.w3.org/1999/xlink" x="0px" y="0px"
	 viewBox="0 0 30 30" style="enable-background:new 0 0 30 30;" xml:space="preserve">
<style type="text/css">
	.st0{fill:#286140;}
	.st1{opacity:0.3;clip-path:url(#SVGID_3_);}
	.st2{fill:#D2C6B7;}
	.st3{opacity:0.15;}
	.st4{clip-path:url(#SVGID_6_);}
	.st5{opacity:0.5;}
	.st6{opacity:0.3;clip-path:url(#SVGID_8_);}
	.st7{clip-path:url(#SVGID_11_);}
	.st8{opacity:0.3;clip-path:url(#SVGID_12_);}
	.st9{opacity:0.3;clip-path:url(#SVGID_13_);}
	.st10{opacity:0.3;clip-path:url(#SVGID_14_);}
	.st11{fill:#FFFFFF;}
	.st12{fill:none;stroke:#286140;stroke-width:0.9155;stroke-linecap:round;stroke-miterlimit:10;}
</style>
<g>
	<path class="st2" d="M21.03,30H8.97c-4.73,0-8.57-3.84-8.57-8.57V8.57C0.4,3.84,4.25,0,8.97,0h12.05c4.73,0,8.57,3.84,8.57,8.57
		v12.86C29.6,26.16,25.75,30,21.03,30z M8.97,2.2C5.46,2.2,2.6,5.06,2.6,8.57v12.86c0,3.51,2.86,6.37,6.37,6.37h12.05
		c3.51,0,6.37-2.86,6.37-6.37V8.57c0-3.51-2.86-6.37-6.37-6.37H8.97z"/>
	<path class="st2" d="M15,22.93c-4.39,0-7.97-3.58-7.97-7.97c0-2.17,0.89-4.27,2.44-5.78c1.51-1.47,3.49-2.25,5.57-2.19
		c2.48,0.07,4.54,0.91,5.96,2.42c1.34,1.43,2.02,3.36,1.98,5.58l0,0c-0.05,2.12-0.88,4.11-2.36,5.6C19.11,22.1,17.12,22.93,15,22.93
		z M14.82,9.67c-1.29,0-2.52,0.5-3.47,1.43c-1.04,1.01-1.63,2.41-1.63,3.86c0,2.91,2.37,5.28,5.28,5.28c2.9,0,5.22-2.33,5.28-5.31
		c0.03-1.5-0.4-2.78-1.25-3.69c-0.91-0.98-2.32-1.52-4.07-1.57C14.91,9.67,14.86,9.67,14.82,9.67z"/>
	<circle class="st2" cx="23.16" cy="6.76" r="1.86"/>
</g>
</svg>
