<?xml version="1.0" encoding="utf-8"?>
<!-- Generator: Adobe Illustrator 23.0.0, SVG Export Plug-In . SVG Version: 6.00 Build 0)  -->
<svg version="1.1" id="Vrstva_1" xmlns="http://www.w3.org/2000/svg" xmlns:xlink="http://www.w3.org/1999/xlink" x="0px" y="0px"
	 viewBox="0 0 45 50" style="enable-background:new 0 0 45 50;" xml:space="preserve">
<style type="text/css">
	.st0{fill:#286140;}
	.st1{opacity:0.3;clip-path:url(#SVGID_3_);}
	.st2{fill:#D2C6B7;}
	.st3{opacity:0.15;}
	.st4{clip-path:url(#SVGID_6_);}
	.st5{opacity:0.5;}
	.st6{opacity:0.3;clip-path:url(#SVGID_8_);}
	.st7{clip-path:url(#SVGID_11_);}
	.st8{opacity:0.3;clip-path:url(#SVGID_12_);}
	.st9{opacity:0.3;clip-path:url(#SVGID_13_);}
	.st10{opacity:0.3;clip-path:url(#SVGID_14_);}
	.st11{fill:#FFFFFF;}
	.st12{fill:none;stroke:#286140;stroke-width:0.9155;stroke-linecap:round;stroke-miterlimit:10;}
</style>
<g>
	<g>
		<path class="st0" d="M22.49,50c-0.38,0-0.69-0.31-0.69-0.69V2.55c0-0.38,0.31-0.69,0.69-0.69c0.38,0,0.69,0.31,0.69,0.69v46.77
			C23.18,49.69,22.87,50,22.49,50z"/>
		<path class="st0" d="M14.07,8.05c-0.24,0-0.44-0.19-0.46-0.43c-0.01-0.25,0.18-0.47,0.43-0.48c0.02,0,2.05-0.12,4.03-1.03
			c2.58-1.18,3.88-3.08,3.88-5.65c0-0.25,0.2-0.46,0.46-0.46s0.46,0.2,0.46,0.46c0,7.03-8.69,7.59-8.78,7.59
			C14.09,8.05,14.08,8.05,14.07,8.05z"/>
		<path class="st0" d="M7.56,20.35c-0.24,0-0.44-0.19-0.46-0.43c-0.01-0.25,0.18-0.47,0.43-0.48c0.04,0,3.7-0.22,7.3-1.87
			C19.59,15.4,22,11.9,22,7.16c0-0.25,0.2-0.46,0.46-0.46c0.25,0,0.46,0.2,0.46,0.46c0,12.22-15.17,13.19-15.32,13.19
			C7.58,20.35,7.57,20.35,7.56,20.35z"/>
		<path class="st0" d="M0.91,35.21c-0.24,0-0.44-0.19-0.46-0.43c-0.01-0.25,0.18-0.47,0.43-0.48c0.21-0.01,21.15-1.36,21.15-18.01
			c0-0.25,0.2-0.46,0.46-0.46c0.25,0,0.46,0.2,0.46,0.46c0,17.52-21.8,18.91-22.02,18.92C0.93,35.21,0.92,35.21,0.91,35.21z"/>
		<path class="st0" d="M30.93,8.05c-0.01,0-0.02,0-0.03,0c-0.09,0-8.78-0.56-8.78-7.59c0-0.25,0.2-0.46,0.46-0.46
			s0.46,0.2,0.46,0.46c0,2.57,1.31,4.47,3.88,5.65c1.98,0.91,4.01,1.03,4.03,1.03c0.25,0.01,0.45,0.23,0.43,0.48
			C31.37,7.86,31.17,8.05,30.93,8.05z"/>
		<path class="st0" d="M37.44,20.35c-0.01,0-0.02,0-0.03,0c-0.15-0.01-15.32-0.98-15.32-13.19c0-0.25,0.2-0.46,0.46-0.46
			C22.8,6.7,23,6.9,23,7.16c0,4.74,2.41,8.25,7.15,10.41c3.6,1.65,7.27,1.87,7.3,1.87c0.25,0.01,0.45,0.23,0.43,0.48
			C37.88,20.16,37.68,20.35,37.44,20.35z"/>
		<path class="st0" d="M44.09,35.21c-0.01,0-0.02,0-0.03,0c-0.22-0.01-22.02-1.41-22.02-18.92c0-0.25,0.2-0.46,0.46-0.46
			c0.25,0,0.46,0.2,0.46,0.46c0,16.66,20.94,18,21.15,18.01c0.25,0.01,0.45,0.23,0.43,0.48C44.53,35.02,44.33,35.21,44.09,35.21z"/>
	</g>
</g>
</svg>
