<?xml version="1.0" encoding="utf-8"?>
<!-- Generator: Adobe Illustrator 23.0.4, SVG Export Plug-In . SVG Version: 6.00 Build 0)  -->
<svg version="1.1" id="Vrstva_1" xmlns="http://www.w3.org/2000/svg" xmlns:xlink="http://www.w3.org/1999/xlink" x="0px" y="0px"
	 viewBox="0 0 26.5 30" style="enable-background:new 0 0 26.5 30;" xml:space="preserve">
<style type="text/css">
	.st0{fill:#286140;}
</style>
<path class="st0" d="M26.2,20.6c-0.1,0-11.2-0.7-12.6-9.1V7.3c2.1,4.5,8.5,4.9,8.5,4.9c0,0,0,0,0,0c0.1,0,0.3-0.1,0.3-0.3
	c0-0.1-0.1-0.3-0.3-0.3c0,0-2.2-0.1-4.4-1.1c-2.4-1.1-3.8-2.8-4.2-5v-3c1.4,2.1,4.6,2.3,4.6,2.3c0,0,0,0,0,0c0.1,0,0.3-0.1,0.3-0.3
	c0-0.2-0.1-0.3-0.3-0.3c0,0-1.2-0.1-2.4-0.6c-1.5-0.7-2.3-1.8-2.3-3.4c0-0.2-0.1-0.3-0.3-0.3c0,0,0,0-0.1,0c0,0,0,0-0.1,0
	c-0.2,0-0.3,0.1-0.3,0.3c0,1.5-0.8,2.7-2.3,3.4C9.4,4.2,8.2,4.3,8.2,4.3C8,4.3,7.9,4.4,7.9,4.6c0,0.1,0.1,0.3,0.3,0.3c0,0,0,0,0,0
	c0,0,3.2-0.2,4.6-2.3v3.1c-0.4,2.2-1.8,3.9-4.2,5c-2.2,1-4.4,1.1-4.4,1.1C4.1,11.7,4,11.8,4,12c0,0.1,0.1,0.3,0.3,0.3c0,0,0,0,0,0
	c0.1,0,6.4-0.4,8.5-4.8v4.1c-1.4,8.3-12.4,9.1-12.6,9.1c-0.1,0-0.3,0.1-0.3,0.3c0,0.1,0.1,0.3,0.3,0.3c0,0,0,0,0,0
	c0.1,0,9.8-0.6,12.5-7.5v16c0,0.2,0.2,0.4,0.4,0.4c0.2,0,0.4-0.2,0.4-0.4v-16c2.7,6.9,12.4,7.5,12.5,7.5c0,0,0,0,0,0
	c0.1,0,0.3-0.1,0.3-0.3C26.5,20.7,26.3,20.6,26.2,20.6z"/>
</svg>
