<?xml version="1.0" encoding="utf-8"?>
<!-- Generator: Adobe Illustrator 23.0.0, SVG Export Plug-In . SVG Version: 6.00 Build 0)  -->
<svg version="1.1" id="Vrstva_1" xmlns="http://www.w3.org/2000/svg" xmlns:xlink="http://www.w3.org/1999/xlink" x="0px" y="0px"
	 viewBox="0 0 70 70" style="enable-background:new 0 0 70 70;" xml:space="preserve">
<style type="text/css">
	.st0{fill:#286140;}
	.st1{opacity:0.3;clip-path:url(#SVGID_3_);}
	.st2{fill:#D2C6B7;}
	.st3{opacity:0.15;}
	.st4{clip-path:url(#SVGID_6_);}
	.st5{opacity:0.5;}
	.st6{opacity:0.3;clip-path:url(#SVGID_8_);}
	.st7{clip-path:url(#SVGID_11_);}
	.st8{opacity:0.3;clip-path:url(#SVGID_12_);}
	.st9{opacity:0.3;clip-path:url(#SVGID_13_);}
	.st10{opacity:0.3;clip-path:url(#SVGID_14_);}
	.st11{fill:#FFFFFF;}
	.st12{fill:none;stroke:#286140;stroke-width:0.9155;stroke-linecap:round;stroke-miterlimit:10;}
</style>
<g>
	<circle class="st0" cx="35" cy="33.84" r="29.62"/>
	<g>
		<defs>
			<circle id="SVGID_2_" cx="35" cy="33.84" r="29.62"/>
		</defs>
		<clipPath id="SVGID_3_">
			<use xlink:href="#SVGID_2_"  style="overflow:visible;"/>
		</clipPath>
		<g class="st1">
			<path d="M24.23,51.57l7.69,16.94c0,0,18.02,3.97,18.44,3.49c0.42-0.49,20.35-21.56,20.35-21.56L52.45,21.24l-1.37,4.78
				L28.6,37.23l-0.99,12.84L24.23,51.57z"/>
		</g>
	</g>
	<g>
		<g>
			<g>
				<path class="st2" d="M52.72,23.9c0-2-0.35-3.41-0.91-2.25c-1.12,2.33-3.07,4.83-7.07,6.73c-4.03,1.92-11.21,0.27-15.44,0.15
					c-1.57-0.04-4.52-3.37-5.26-3.94c-0.68-0.52-4.28-2.96-4.28-2.96c-1,0-0.02,1.75-0.85,2.09c-0.12,0.05-1.09,0.45-1.3,1.06
					c-0.88,2.61-3.27,2.81-3.41,3.71c-0.14,0.88,0.65,4.54,5.54,1.9c0.43-0.23,3.01-0.8,2.76,3.16c-0.2,3.21,1.14,5.03,2.24,5.95
					c0.33,0.28,1.62,8.7,1.79,9.98c0.01,0.05-3.72-1.55-2.58,2.1c0.19,0.6,4.15,0.33,4.31,0c0.16-0.32,0.11-1.98,0.12-2.33
					c0.01-0.57,0.27-4.67,0.28-7.22c0-0.95,0.93-1.63,1.84-1.35c5.27,1.66,8.25-4.16,9.07-2.19c0.19,0.67,2.09,5.61,4.79,5.94
					c0.69,0.08,1.76,5.62,0.3,5.34c-1.92-0.38-1.55,1.74-1.37,1.81c0,0,1.53,0,2.45,0c0.45,0,0.83-0.33,0.88-0.78
					c0.2-1.69,0.63-5.63,0.35-7.17c-1.17-6.35,1.74-8.71-0.53-12.36c0-0.01,0-0.02,0-0.03C46.3,29.87,52.72,29.09,52.72,23.9z"/>
			</g>
		</g>
		<g class="st3">
			<path d="M52.72,23.9c0-2-0.35-3.41-0.91-2.25c-1.12,2.33-3.07,4.83-7.07,6.73c-3.03,1.45-7.85,0.87-11.85,0.44l3.2,11.02
				c1.87-1.11,3.02-2.48,3.49-1.37c0.19,0.67,2.09,5.61,4.79,5.94c0.69,0.08,1.76,5.62,0.3,5.34c-1.92-0.38-1.55,1.74-1.37,1.81
				c0,0,1.53,0,2.45,0c0.45,0,0.83-0.33,0.88-0.78c0.2-1.69,0.63-5.63,0.35-7.17c-1.17-6.35,1.74-8.71-0.53-12.36
				c0-0.01,0-0.02,0-0.03C46.3,29.87,52.72,29.09,52.72,23.9z"/>
		</g>
	</g>
	<g>
		<defs>
			<circle id="SVGID_5_" cx="35" cy="35" r="35"/>
		</defs>
		<clipPath id="SVGID_6_">
			<use xlink:href="#SVGID_5_"  style="overflow:visible;"/>
		</clipPath>
		<g class="st4">
			
				<rect x="-14.97" y="32.73" transform="matrix(0.7071 -0.7071 0.7071 0.7071 -13.9634 33.1555)" class="st2" width="96.02" height="1.4"/>
			
				<rect x="-13.57" y="32.73" transform="matrix(0.7071 -0.7071 0.7071 0.7071 -13.5534 34.1454)" class="st5" width="96.02" height="1.4"/>
			
				<rect x="38.64" y="-12.48" transform="matrix(0.7071 -0.7071 0.7071 0.7071 -13.603 38.2253)" class="st2" width="1.4" height="96.03"/>
			
				<rect x="38.64" y="-11.08" transform="matrix(0.7071 -0.7071 0.7071 0.7071 -14.593 38.6356)" class="st5" width="1.4" height="96.03"/>
		</g>
	</g>
</g>
</svg>
