<?xml version="1.0" encoding="utf-8"?>
<!-- Generator: Adobe Illustrator 23.0.0, SVG Export Plug-In . SVG Version: 6.00 Build 0)  -->
<svg version="1.1" id="Vrstva_1" xmlns="http://www.w3.org/2000/svg" xmlns:xlink="http://www.w3.org/1999/xlink" x="0px" y="0px"
	 viewBox="0 0 70 70" style="enable-background:new 0 0 70 70;" xml:space="preserve">
<style type="text/css">
	.st0{fill:#286140;}
	.st1{opacity:0.3;clip-path:url(#SVGID_3_);}
	.st2{fill:#D2C6B7;}
	.st3{opacity:0.15;}
	.st4{clip-path:url(#SVGID_6_);}
	.st5{opacity:0.5;}
	.st6{opacity:0.3;clip-path:url(#SVGID_8_);}
	.st7{clip-path:url(#SVGID_11_);}
	.st8{opacity:0.3;clip-path:url(#SVGID_12_);}
	.st9{opacity:0.3;clip-path:url(#SVGID_13_);}
	.st10{opacity:0.3;clip-path:url(#SVGID_14_);}
	.st11{fill:#FFFFFF;}
	.st12{fill:none;stroke:#286140;stroke-width:0.9155;stroke-linecap:round;stroke-miterlimit:10;}
</style>
<g>
	<circle class="st0" cx="35" cy="33.84" r="29.62"/>
	<g>
		<defs>
			<circle id="SVGID_4_" cx="35" cy="33.84" r="29.62"/>
		</defs>
		<clipPath id="SVGID_3_">
			<use xlink:href="#SVGID_4_"  style="overflow:visible;"/>
		</clipPath>
		<g class="st1">
			<path d="M15.12,39.05L28.55,67.8c0,0,19.58,4.69,20,4.2c0.42-0.49,15.33-20.95,15.33-20.95L55.22,37.2L15.12,39.05z"/>
		</g>
	</g>
	<g>
		<g>
			<polygon class="st2" points="55.25,40.75 17.17,40.75 16.59,37.2 55.25,37.2 			"/>
			<g>
				<g class="st5">
					<path d="M22.45,24.29c-5.24,1.34-4.69,7.68-4.44,10.09c-3.16,2.06-3.23,11.3,4.11,2.9c2.54,0.49,8.75-3.53,6.84-9.8
						c2.31-1.61,5.35-3.74,5.97-6.48C35.99,16.32,24.78,10.07,22.45,24.29z"/>
				</g>
				<path class="st2" d="M21.22,23.08c-5.24,1.34-4.69,7.68-4.44,10.09c-3.16,2.06-3.23,11.3,4.11,2.9c2.54,0.49,8.75-3.53,6.84-9.8
					c2.31-1.61,5.35-3.74,5.97-6.48C34.77,15.11,23.55,8.86,21.22,23.08z"/>
			</g>
		</g>
		<g class="st3">
			<polygon points="55.25,40.75 37.14,40.75 35.92,37.2 55.25,37.2 			"/>
		</g>
	</g>
	<g>
		<defs>
			<circle id="SVGID_9_" cx="35" cy="35" r="35"/>
		</defs>
		<clipPath id="SVGID_6_">
			<use xlink:href="#SVGID_9_"  style="overflow:visible;"/>
		</clipPath>
		<g class="st4">
			<g>
				<line x1="-0.91" y1="67.38" x2="66.99" y2="-0.52"/>
				
					<rect x="-14.97" y="32.73" transform="matrix(0.7071 -0.7071 0.7071 0.7071 -13.9634 33.1555)" class="st2" width="96.02" height="1.4"/>
			</g>
			
				<rect x="-13.57" y="32.73" transform="matrix(0.7071 -0.7071 0.7071 0.7071 -13.5534 34.1454)" class="st5" width="96.02" height="1.4"/>
			
				<rect x="38.64" y="-12.48" transform="matrix(0.7071 -0.7071 0.7071 0.7071 -13.603 38.2253)" class="st2" width="1.4" height="96.03"/>
			
				<rect x="38.64" y="-11.08" transform="matrix(0.7071 -0.7071 0.7071 0.7071 -14.593 38.6356)" class="st5" width="1.4" height="96.03"/>
		</g>
	</g>
</g>
</svg>
