<?xml version="1.0" encoding="utf-8"?>
<!-- Generator: Adobe Illustrator 23.0.0, SVG Export Plug-In . SVG Version: 6.00 Build 0)  -->
<svg version="1.1" id="Vrstva_1" xmlns="http://www.w3.org/2000/svg" xmlns:xlink="http://www.w3.org/1999/xlink" x="0px" y="0px"
	 viewBox="0 0 60 60" style="enable-background:new 0 0 60 60;" xml:space="preserve">
<style type="text/css">
	.st0{fill:#286140;}
	.st1{opacity:0.3;clip-path:url(#SVGID_3_);}
	.st2{fill:#D2C6B7;}
	.st3{opacity:0.15;}
	.st4{clip-path:url(#SVGID_6_);}
	.st5{opacity:0.5;}
	.st6{opacity:0.3;clip-path:url(#SVGID_8_);}
	.st7{clip-path:url(#SVGID_11_);}
	.st8{opacity:0.3;clip-path:url(#SVGID_12_);}
	.st9{opacity:0.3;clip-path:url(#SVGID_13_);}
	.st10{opacity:0.3;clip-path:url(#SVGID_14_);}
	.st11{fill:#FFFFFF;}
	.st12{fill:none;stroke:#286140;stroke-width:0.9155;stroke-linecap:round;stroke-miterlimit:10;}
</style>
<g>
	<g>
		<defs>
			<circle id="SVGID_1_" cx="30" cy="-34" r="29.62"/>
		</defs>
		<clipPath id="SVGID_3_">
			<use xlink:href="#SVGID_1_"  style="overflow:visible;"/>
		</clipPath>
		<g class="st1">
			<path d="M11.18-34.86L26.17-2.77c0,0,16.96,7.42,17.38,6.93c0.42-0.49,15.48-25.73,15.48-25.73L48.7-38.09l-20-8.52L11.18-34.86z
				"/>
		</g>
	</g>
</g>
<g>
	<circle class="st0" cx="30" cy="30" r="29.62"/>
	<g>
		<defs>
			<circle id="SVGID_7_" cx="30" cy="30" r="29.62"/>
		</defs>
		<clipPath id="SVGID_6_">
			<use xlink:href="#SVGID_7_"  style="overflow:visible;"/>
		</clipPath>
		<g style="opacity:0.3;clip-path:url(#SVGID_6_);">
			<path d="M21.14,44.54l7.87,17.87c0,0,14.12,6.23,14.55,5.75c0.42-0.49,14.98-18.59,14.98-18.59L39.38,18.95l-12.93-3.68
				L21.14,44.54z"/>
		</g>
	</g>
	<g>
		<g>
			<path class="st2" d="M30.77,34.88h-3.92v9.67c-0.89,0.17-2.04,0.21-2.85,0.21c-0.77,0-1.96-0.04-2.85-0.21V15.67l0.3-0.26
				c3.41-0.09,6.26-0.17,9.33-0.17c5.88,0,10.09,3.19,10.09,9.84C40.86,31.51,36.64,34.88,30.77,34.88z M26.85,30.53
				c1.41-0.04,2.94-0.09,3.58-0.09c3.79,0,4.56-3.11,4.56-5.37c0-2.3-0.77-5.37-4.56-5.37c-1.06,0-2.3,0-3.58-0.04V30.53z"/>
		</g>
		<path class="st3" d="M30.77,15.24c-1.52,0-2.99,0.02-4.49,0.05l1.24,4.39c1.04,0.02,2.03,0.03,2.91,0.03
			c3.79,0,4.56,3.07,4.56,5.37c0,2.23-0.75,5.29-4.43,5.36l1.24,4.4c5.34-0.37,9.07-3.71,9.07-9.76
			C40.86,18.43,36.64,15.24,30.77,15.24z"/>
	</g>
</g>
</svg>
