<?xml version="1.0" encoding="utf-8"?>
<!-- Generator: Adobe Illustrator 23.0.0, SVG Export Plug-In . SVG Version: 6.00 Build 0)  -->
<svg version="1.1" id="Vrstva_1" xmlns="http://www.w3.org/2000/svg" xmlns:xlink="http://www.w3.org/1999/xlink" x="0px" y="0px"
	 viewBox="0 0 16 28" style="enable-background:new 0 0 16 28;" xml:space="preserve">
<style type="text/css">
	.st0{fill:#286140;}
	.st1{opacity:0.3;clip-path:url(#SVGID_3_);}
	.st2{fill:#D2C6B7;}
	.st3{opacity:0.15;}
	.st4{clip-path:url(#SVGID_6_);}
	.st5{opacity:0.5;}
	.st6{opacity:0.3;clip-path:url(#SVGID_8_);}
	.st7{clip-path:url(#SVGID_11_);}
	.st8{opacity:0.3;clip-path:url(#SVGID_12_);}
	.st9{opacity:0.3;clip-path:url(#SVGID_13_);}
	.st10{opacity:0.3;clip-path:url(#SVGID_14_);}
	.st11{fill:#FFFFFF;}
	.st12{fill:none;stroke:#286140;stroke-width:0.9155;stroke-linecap:round;stroke-miterlimit:10;}
</style>
<g>
	<path class="st0" d="M16,2.05v23.89c0,1.06-0.86,1.91-1.91,1.91H1.91C0.86,27.86,0,27,0,25.95L0,2.05C0,1,0.86,0.14,1.91,0.14
		l12.18,0C15.14,0.14,16,1,16,2.05z"/>
	<g>
		<path class="st0" d="M12.98,3.55v15.4c0,0.66-0.54,1.2-1.2,1.2H4.22c-0.66,0-1.2-0.54-1.2-1.2V3.55c0-0.66,0.54-1.2,1.2-1.2h7.57
			C12.45,2.35,12.98,2.89,12.98,3.55z"/>
		<path class="st11" d="M11.28,3.77c0.16,0,0.28,0.13,0.28,0.28v14.38c0,0.16-0.13,0.28-0.28,0.28H4.72c-0.16,0-0.28-0.13-0.28-0.28
			V4.05c0-0.16,0.13-0.28,0.28-0.28H11.28 M11.28,2.35H4.72c-0.94,0-1.7,0.76-1.7,1.71v14.38c0,0.94,0.76,1.71,1.7,1.71h6.55
			c0.94,0,1.71-0.76,1.71-1.71V4.05C12.98,3.11,12.22,2.35,11.28,2.35L11.28,2.35z"/>
	</g>
	<circle class="st11" cx="8" cy="24.36" r="1.42"/>
</g>
</svg>
