<?xml version="1.0" encoding="utf-8"?>
<!-- Generator: Adobe Illustrator 23.0.3, SVG Export Plug-In . SVG Version: 6.00 Build 0)  -->
<svg version="1.1" id="Vrstva_1" xmlns="http://www.w3.org/2000/svg" xmlns:xlink="http://www.w3.org/1999/xlink" x="0px" y="0px"
	 viewBox="0 0 286 290" style="enable-background:new 0 0 286 290;" xml:space="preserve">
<style type="text/css">
	.st0{fill:#286140;}
	.st1{opacity:0.3;clip-path:url(#SVGID_3_);}
	.st2{fill:#D2C6B7;}
	.st3{opacity:0.15;}
	.st4{clip-path:url(#SVGID_6_);}
	.st5{opacity:0.5;}
	.st6{opacity:0.3;clip-path:url(#SVGID_8_);}
	.st7{clip-path:url(#SVGID_11_);}
	.st8{opacity:0.3;clip-path:url(#SVGID_12_);}
	.st9{opacity:0.3;clip-path:url(#SVGID_13_);}
	.st10{opacity:0.3;clip-path:url(#SVGID_14_);}
	.st11{fill:#FFFFFF;}
	.st12{fill:none;stroke:#286140;stroke-width:0.9155;stroke-linecap:round;stroke-miterlimit:10;}
	.st13{fill:none;stroke:#FFFFFF;stroke-width:2.7848;stroke-linecap:round;stroke-miterlimit:10;}
</style>
<g>
	<g>
		<path class="st11" d="M47.8,269.9c0.4-0.1,0.8-0.1,1.3-0.1c0.6,0,1.2,0.1,1.8,0.3l0.1,0.2c-1.1,3.9-2.9,9.8-3.8,12.7
			c-0.8,0.1-1.7,0.2-2.5,0.2c-1.3,0-2-0.3-2.4-1.8l-3.4-11.1c0.7-0.3,1.4-0.5,1.9-0.5c1,0,1.6,0.4,1.9,1.5l1.5,5.3
			c0.3,1.2,0.6,2.7,0.8,3.5c0.1,0.2,0.1,0.2,0.3,0.2L47.8,269.9z"/>
		<path class="st11" d="M60.7,266.2c1.2-0.9,2.5-1.6,4.8-1.6c2.3,0,3.6,0.7,4.8,1.6c2.1,1.8,2.8,4.9,2.8,7.7c0,2.8-0.7,5.9-2.8,7.7
			c-1.1,0.9-2.5,1.6-4.8,1.6c-2.2,0-3.6-0.7-4.8-1.6c-2.1-1.8-2.8-4.9-2.8-7.7C57.9,271.1,58.6,268.1,60.7,266.2z M65.4,280.5
			c3.3,0,3.9-3.6,3.9-6.6c0-3-0.5-6.5-3.9-6.5c-3.3,0-3.9,3.6-3.9,6.5C61.6,276.9,62.1,280.5,65.4,280.5z"/>
		<path class="st11" d="M76.2,269.7c1.5,0.2,2.4,1,2.9,2.4c0.6-1.3,1.6-2.3,3.3-2.3c0.7,0,1.1,0.1,1.6,0.2c0,0.8-0.3,2.2-0.8,3.2
			c-0.4-0.1-0.8-0.2-1.2-0.2c-1.2,0-1.9,0.7-2.5,1.6v8.3c-0.5,0.1-1.1,0.1-1.7,0.1c-0.6,0-1.2-0.1-1.7-0.1v-8.7c0-1.5-0.5-2.3-1-2.7
			C75.3,270.9,75.8,270,76.2,269.7z"/>
		<path class="st11" d="M91.1,280.4c0.2,0.5,0.3,1.1,0.3,1.6c0,0.3,0,0.5-0.1,0.8c-0.7,0.1-1.7,0.2-2.5,0.2c-2,0-2.9-1-2.9-3.2v-16
			l0.2-0.2h1.3c1.4,0,1.9,0.6,1.9,2.1v13.4c0,0.8,0.3,1.2,1.1,1.2H91.1z"/>
		<path class="st11" d="M97.8,282.9c-0.5,0.1-1.1,0.1-1.7,0.1s-1.2-0.1-1.7-0.1v-9.1c0-0.9-0.3-1.4-1.2-1.4h-0.3
			c-0.1-0.4-0.2-0.8-0.2-1.2c0-0.4,0.1-0.8,0.2-1.2c0.7-0.1,1.5-0.1,2-0.1h0.4c1.5,0,2.5,1,2.5,2.7V282.9z M93.8,264.8
			c0.4-0.2,1.1-0.3,1.7-0.3c0.6,0,1.4,0.1,1.7,0.3c0.2,0.4,0.3,0.9,0.3,1.4c0,0.4-0.1,0.9-0.3,1.4c-0.3,0.2-1.1,0.4-1.7,0.4
			c-0.6,0-1.4-0.2-1.7-0.4c-0.2-0.4-0.3-0.9-0.3-1.4C93.6,265.8,93.6,265.3,93.8,264.8z"/>
		<path class="st11" d="M106.1,272.1c-1.4,0-2.1,1.4-2.1,4.3s0.9,4.1,2.6,4.1c1.1,0,2.2-0.6,3-1.2c0.5,0.3,1.2,1.3,1.3,2
			c-1.2,1.2-3,2-4.9,2c-3.8,0-5.6-2.9-5.6-6.8c0-5,2.9-6.9,5.7-6.9c3.1,0,4.9,1.9,4.9,4.1c0,1.2-0.7,1.8-1.7,1.8c-0.6,0-1,0-1.4-0.1
			C108,273.4,107.7,272.1,106.1,272.1z"/>
		<path class="st11" d="M123.8,279.9c0.3,0.9,0.6,1.7,1.3,2.1c-0.5,0.6-1.4,1-2.3,1c-1.1,0-1.5-0.5-1.9-1.7l-0.9-2.4
			c-0.5-1.2-0.9-1.5-1.9-1.5c-0.4,0-0.7,0-1,0.1v5.4c-0.5,0.1-1.1,0.1-1.7,0.1c-0.6,0-1.2-0.1-1.6-0.1v-19.1l0.2-0.2h1.3
			c1.4,0,1.8,0.6,1.8,2.1v8.9l0.7,0c0.3,0,0.5-0.1,0.7-0.4l1.8-3.1c0.5-0.9,1-1.3,2-1.3c0.7,0,1.3,0,1.9,0.1l0.2,0.2l-2.4,4.2
			c-0.3,0.5-0.7,1-1.1,1.3c1,0.3,1.8,1.1,2.3,2.3L123.8,279.9z"/>
		<path class="st11" d="M134.4,282.5c-1,3.7-2.4,6.1-6.1,6.1c-0.9,0-2.2-0.3-2.9-0.5c-0.1-0.8,0.3-1.9,0.7-2.4
			c0.5,0.2,1.4,0.4,2.2,0.4c1.5,0,2.3-1,2.8-2.7l0.1-0.3c-1.3,0-2.1-0.4-2.4-1.5l-3.2-11.4c0.7-0.3,1.5-0.5,2.1-0.5
			c0.8,0,1.4,0.3,1.7,1.5l1.5,5.5c0.3,1,0.6,2.7,0.8,3.6c0,0.2,0.1,0.2,0.2,0.2l2.6-10.6c0.4-0.1,0.9-0.2,1.4-0.2
			c0.6,0,1.2,0.1,1.8,0.3l0.1,0.2L134.4,282.5z M133.3,263.1c0.9,0.3,1.9,1.2,2.2,2.1l-4.7,3.6c-0.6-0.2-1.2-0.7-1.4-1.4
			L133.3,263.1z"/>
		<path class="st11" d="M144.2,272.1c-1.4,0-2.1,1.4-2.1,4.3s0.9,4.1,2.6,4.1c1.1,0,2.2-0.6,3-1.2c0.5,0.3,1.2,1.3,1.3,2
			c-1.2,1.2-3,2-4.9,2c-3.8,0-5.6-2.9-5.6-6.8c0-5,2.9-6.9,5.7-6.9c3.1,0,4.9,1.9,4.9,4.1c0,1.2-0.7,1.8-1.7,1.8c-0.6,0-1,0-1.4-0.1
			C146.2,273.4,145.8,272.1,144.2,272.1z"/>
		<path class="st11" d="M162.5,279.8c0,1,0.1,1.9,0.5,2.5c-0.5,0.4-1.3,0.7-2.1,0.7c-1.4,0-1.8-0.7-1.8-2.1v-6.1
			c0-1.5-0.3-2.1-1.4-2.1c-0.8,0-1.8,0.4-2.6,1.3v8.9c-0.5,0.1-1.1,0.1-1.7,0.1c-0.6,0-1.2-0.1-1.6-0.1v-19.1l0.2-0.2h1.3
			c1.4,0,1.8,0.6,1.8,2.1v5.5c1-0.9,2.3-1.6,3.8-1.6c2.4,0,3.6,1.9,3.6,4.5V279.8z"/>
		<path class="st11" d="M182.5,279.8c0,1,0.1,1.9,0.5,2.5c-0.5,0.4-1.3,0.7-2.1,0.7c-1.4,0-1.8-0.7-1.8-2.1v-6.1
			c0-1.5-0.3-2.1-1.4-2.1c-0.8,0-1.8,0.4-2.6,1.3v8.9c-0.5,0.1-1.1,0.1-1.7,0.1c-0.6,0-1.2-0.1-1.6-0.1v-19.1l0.2-0.2h1.3
			c1.4,0,1.8,0.6,1.8,2.1v5.5c1-0.9,2.3-1.6,3.8-1.6c2.4,0,3.6,1.9,3.6,4.5V279.8z"/>
		<path class="st11" d="M195,281.7c-1,1-2.4,1.5-4,1.5c-1.6,0-2.9-0.5-4-1.5c-1.4-1.4-1.9-3.1-1.9-5.4c0-2.2,0.5-4,1.9-5.4
			c1-1,2.4-1.5,4-1.5c1.6,0,3,0.5,4,1.5c1.4,1.4,1.9,3.2,1.9,5.4C196.9,278.6,196.4,280.4,195,281.7z M191,280.6
			c1.9,0,2.3-2,2.3-4.3c0-2.3-0.4-4.3-2.3-4.3c-1.9,0-2.4,2-2.4,4.3C188.7,278.7,189.1,280.6,191,280.6z"/>
		<path class="st11" d="M200,269.7c1.5,0.2,2.4,1,2.9,2.4c0.6-1.3,1.6-2.3,3.3-2.3c0.7,0,1.1,0.1,1.6,0.2c0,0.8-0.3,2.2-0.8,3.2
			c-0.4-0.1-0.8-0.2-1.2-0.2c-1.2,0-1.9,0.7-2.5,1.6v8.3c-0.5,0.1-1.1,0.1-1.7,0.1c-0.6,0-1.2-0.1-1.7-0.1v-8.7c0-1.5-0.5-2.3-1-2.7
			C199,270.9,199.5,270,200,269.7z"/>
		<path class="st11" d="M218.8,283.1c-1.2-0.1-2-0.7-2.5-1.5c-0.9,0.9-2.2,1.6-3.9,1.6c-2.6,0-3.9-2-3.9-3.9c0-3.1,2.4-4.4,5.1-4.4
			c0.6,0,1.4,0,2.2,0.1v-0.7c0-1.4-0.7-2-1.9-2c-1.2,0-2.6,0.4-4,0.9c-0.5-0.5-0.8-1.6-0.9-2.4c1.6-0.7,4-1.2,5.7-1.2
			c2.4,0,4.5,1.3,4.5,4.4v5.4c0,0.9,0.2,1.5,0.7,1.9C219.8,281.9,219.3,282.7,218.8,283.1z M215.8,263.1c0.9,0.3,1.9,1.2,2.2,2.1
			l-4.7,3.6c-0.6-0.2-1.2-0.7-1.4-1.4L215.8,263.1z M215.8,279.5v-2.3c-0.7-0.1-1.4-0.1-1.9-0.1c-1.4,0-2,0.8-2,2
			c0,0.9,0.5,1.5,1.5,1.5C214.2,280.6,215.1,280.3,215.8,279.5z"/>
		<path class="st11" d="M227.2,272.1c-1.4,0-2.1,1.4-2.1,4.3s0.9,4.1,2.6,4.1c1.1,0,2.2-0.6,3-1.2c0.5,0.3,1.2,1.3,1.3,2
			c-1.2,1.2-3,2-4.9,2c-3.8,0-5.6-2.9-5.6-6.8c0-5,2.9-6.9,5.7-6.9c3.1,0,4.9,1.9,4.9,4.1c0,1.2-0.7,1.8-1.7,1.8c-0.6,0-1,0-1.4-0.1
			C229.1,273.4,228.8,272.1,227.2,272.1z"/>
		<path class="st11" d="M245.5,279.8c0,1,0.1,1.9,0.5,2.5c-0.5,0.4-1.3,0.7-2.1,0.7c-1.4,0-1.8-0.7-1.8-2.1v-6.1
			c0-1.5-0.3-2.1-1.4-2.1c-0.8,0-1.8,0.4-2.6,1.3v8.9c-0.5,0.1-1.1,0.1-1.7,0.1c-0.6,0-1.2-0.1-1.6-0.1v-19.1l0.2-0.2h1.3
			c1.4,0,1.8,0.6,1.8,2.1v5.5c1-0.9,2.3-1.6,3.8-1.6c2.4,0,3.6,1.9,3.6,4.5V279.8z"/>
	</g>
	<g>
		<path class="st11" d="M143,153.5c-1.2,0-2.1-0.9-2.1-2.1V9.1c0-1.2,0.9-2.1,2.1-2.1s2.1,0.9,2.1,2.1v142.3
			C145.1,152.6,144.1,153.5,143,153.5z"/>
		<path class="st11" d="M117.4,25.9c-0.7,0-1.3-0.6-1.4-1.3c0-0.8,0.5-1.4,1.3-1.5c0.1,0,6.2-0.4,12.3-3.1
			c7.8-3.6,11.8-9.4,11.8-17.2c0-0.8,0.6-1.4,1.4-1.4s1.4,0.6,1.4,1.4C144.1,24.2,117.7,25.9,117.4,25.9
			C117.4,25.9,117.4,25.9,117.4,25.9z"/>
		<path class="st11" d="M97.6,63.3c-0.7,0-1.3-0.6-1.4-1.3c0-0.8,0.5-1.4,1.3-1.5c0.1,0,11.3-0.7,22.2-5.7
			c14.4-6.6,21.8-17.3,21.8-31.7c0-0.8,0.6-1.4,1.4-1.4s1.4,0.6,1.4,1.4C144.3,60.3,98.1,63.3,97.6,63.3
			C97.6,63.3,97.6,63.3,97.6,63.3z"/>
		<path class="st11" d="M77.3,108.5c-0.7,0-1.3-0.6-1.4-1.3c0-0.8,0.5-1.4,1.3-1.5c0.2,0,16.4-1,32.4-8.3
			c21.2-9.7,31.9-25.3,31.9-46.5c0-0.8,0.6-1.4,1.4-1.4s1.4,0.6,1.4,1.4c0,22.1-11.6,39.1-33.6,49.1
			C94.3,107.5,78.1,108.5,77.3,108.5C77.4,108.5,77.4,108.5,77.3,108.5z"/>
		<path class="st11" d="M168.6,25.9C168.6,25.9,168.6,25.9,168.6,25.9c-0.3,0-26.8-1.7-26.8-23.1c0-0.8,0.6-1.4,1.4-1.4
			s1.4,0.6,1.4,1.4c0,18.8,23.8,20.3,24.1,20.3c0.8,0,1.4,0.7,1.3,1.5C170,25.3,169.4,25.9,168.6,25.9z"/>
		<path class="st11" d="M188.4,63.3C188.4,63.3,188.4,63.3,188.4,63.3c-0.5,0-46.7-3-46.7-40.1c0-0.8,0.6-1.4,1.4-1.4
			s1.4,0.6,1.4,1.4c0,14.4,7.3,25.1,21.8,31.7c11,5,22.1,5.7,22.2,5.7c0.8,0,1.4,0.7,1.3,1.5C189.8,62.7,189.2,63.3,188.4,63.3z"/>
		<path class="st11" d="M208.7,108.5C208.6,108.5,208.6,108.5,208.7,108.5c-0.8,0-16.9-1-33.4-8.5c-22-10-33.6-27-33.6-49.1
			c0-0.8,0.6-1.4,1.4-1.4s1.4,0.6,1.4,1.4c0,21.2,10.8,36.9,32,46.5c16,7.3,32.2,8.2,32.3,8.2c0.8,0,1.4,0.7,1.3,1.5
			C210,107.9,209.4,108.5,208.7,108.5z"/>
	</g>
	<g>
		<path class="st11" d="M52.4,246.2l-13.9-69.6c-0.2-0.8,0.3-1.5,1.1-1.6c0.8-0.2,1.5,0.3,1.6,1.1l12.5,62.6l11.9-62.6
			c0.1-0.8,0.9-1.3,1.6-1.1c0.8,0.1,1.3,0.9,1.1,1.6l-13.2,69.6L52.4,246.2z"/>
		<path class="st11" d="M125.2,247.3c-9.5,0-14.7-6.5-15.5-19.2c-0.1-1.9-0.3-4.4-0.3-7.3v-18.9c0.1-3.1,0.1-5.4,0.3-7.3
			c0.8-12.7,6-19.2,15.5-19.2c0.1,0,0.2,0,0.3,0c4.2,0,7.5,1.4,10,4.1c4.9,5.2,4.6,13.5,4.6,13.9c0,0.8-0.7,1.4-1.5,1.3
			c-0.8,0-1.4-0.7-1.3-1.5c0-0.1,0.3-7.5-3.8-11.9c-2-2.1-4.7-3.1-8-3.2c-0.1,0-0.1,0-0.2,0c-8,0-12,5.3-12.8,16.6
			c-0.1,1.9-0.2,4.1-0.3,7.2l0,18.9c0,2.8,0.1,5.3,0.3,7.1c0.7,11.4,4.9,16.6,13,16.6c3.4,0,6.1-1.1,8-3.2
			c4.1-4.4,3.8-11.8,3.8-11.9c0-0.8,0.6-1.4,1.3-1.5c0.8-0.1,1.4,0.6,1.5,1.3c0,0.4,0.4,8.7-4.6,13.9c-2.5,2.7-5.9,4-10,4.1
			C125.3,247.3,125.2,247.3,125.2,247.3z"/>
		<path class="st11" d="M225.2,247.3c-0.8,0-1.4-0.6-1.4-1.4v-69.6c0-0.8,0.6-1.4,1.4-1.4s1.4,0.6,1.4,1.4v69.6
			C226.6,246.7,226,247.3,225.2,247.3z"/>
		<g>
			<path class="st11" d="M89.5,204.1l-2.5,0l-12.4-27.3c-0.3-0.7,0-1.5,0.7-1.8c0.7-0.3,1.5,0,1.8,0.7l11.2,24.5l11.5-24.6
				c0.3-0.7,1.2-1,1.9-0.7c0.7,0.3,1,1.2,0.7,1.9L89.5,204.1z"/>
			<path class="st11" d="M88.2,247.3c-0.8,0-1.4-0.6-1.4-1.4v-43.1c0-0.8,0.6-1.4,1.4-1.4s1.4,0.6,1.4,1.4v43.1
				C89.6,246.7,89,247.3,88.2,247.3z"/>
		</g>
		<path class="st11" d="M17.1,246.8c-14.1,0-17-12.2-17.1-12.3c-0.2-0.7,0.3-1.5,1-1.7c0.7-0.2,1.5,0.3,1.7,1
			c0.1,0.4,2.5,10.1,14.3,10.1c10,0,14.3-7.8,14.8-13c0.7-7.5-7.4-14.7-15.2-21.6C9.6,203,2.9,197,2.8,190.6c0-3.5,1.1-8.4,4.5-11.8
			c2.6-2.6,6.1-3.9,10.3-3.9c4.6,0,8.2,1.3,10.7,3.9c3.6,3.7,3.6,8.6,3.6,8.8c0,0.8-0.6,1.4-1.4,1.4c0,0,0,0,0,0
			c-0.8,0-1.4-0.6-1.4-1.4c0,0,0-4-2.8-6.8c-2-2-4.9-3-8.7-3c-3.5,0-6.3,1-8.3,3.1c-2.7,2.8-3.7,6.9-3.7,9.8c0,5.1,6.3,10.7,13,16.7
			c8.3,7.4,16.9,15.1,16.1,24C34.1,237.5,29,246.8,17.1,246.8z"/>
		<g>
			<path class="st11" d="M148.3,247.3c-0.1,0-0.2,0-0.3,0c-0.8-0.2-1.2-0.9-1.1-1.6l13.9-69.6l2.7,0l13.2,69.6
				c0.1,0.8-0.4,1.5-1.1,1.6c-0.8,0.1-1.5-0.4-1.6-1.1l-11.9-62.6l-12.5,62.6C149.5,246.8,149,247.3,148.3,247.3z"/>
			<path class="st11" d="M171.1,224.8h-18.1c-0.8,0-1.4-0.6-1.4-1.4s0.6-1.4,1.4-1.4h18.1c0.8,0,1.4,0.6,1.4,1.4
				S171.8,224.8,171.1,224.8z"/>
		</g>
		<g>
			<path class="st11" d="M257.4,247.3c-0.1,0-0.2,0-0.3,0c-0.8-0.2-1.2-0.9-1.1-1.6L270,176l2.7,0l13.2,69.6
				c0.1,0.8-0.4,1.5-1.1,1.6c-0.8,0.1-1.5-0.4-1.6-1.1l-11.9-62.6l-12.5,62.6C258.6,246.8,258.1,247.3,257.4,247.3z"/>
			<path class="st11" d="M280.2,224.8H262c-0.8,0-1.4-0.6-1.4-1.4s0.6-1.4,1.4-1.4h18.1c0.8,0,1.4,0.6,1.4,1.4
				S280.9,224.8,280.2,224.8z"/>
		</g>
		<g>
			<path class="st11" d="M212.7,247.3c-0.6,0-1.1-0.3-1.3-0.9L194.1,203l1.3-1.9c9.6,0,11.1-7,11.1-11.1c0-5.6-3.6-11.7-9.7-12.1
				c-1.6-0.1-4.4-0.1-6.1,0v68.1c0,0.8-0.6,1.4-1.4,1.4s-1.4-0.6-1.4-1.4v-69.4l1.3-1.4c0.2,0,5.1-0.2,7.7,0
				c6,0.4,12.4,5.8,12.3,14.9c-0.1,8-4.5,13-11.9,13.8l16.6,41.6c0.3,0.7-0.1,1.5-0.8,1.8C213,247.3,212.9,247.3,212.7,247.3z"/>
			<path class="st11" d="M195.9,203.9h-6.5c-0.8,0-1.4-0.6-1.4-1.4s0.6-1.4,1.4-1.4h6.5c0.8,0,1.4,0.6,1.4,1.4
				S196.7,203.9,195.9,203.9z"/>
		</g>
		<path class="st11" d="M16.8,170.8l-13.4-9.4c-0.6-0.4-0.8-1.3-0.3-1.9s1.3-0.8,1.9-0.3l12.6,8.8l12.3-8.8c0.6-0.4,1.5-0.3,1.9,0.3
			c0.4,0.6,0.3,1.5-0.3,1.9l-13.1,9.4L16.8,170.8z"/>
		<path class="st11" d="M88.9,171c-0.3,0-0.5-0.1-0.8-0.2c-0.6-0.4-0.8-1.3-0.4-1.9l6.1-9.4c0.4-0.6,1.3-0.8,1.9-0.4
			c0.6,0.4,0.8,1.3,0.4,1.9l-6.1,9.4C89.8,170.8,89.3,171,88.9,171z"/>
		<path class="st11" d="M232,203.9h-5.9c-0.8,0-1.4-0.6-1.4-1.4s0.6-1.4,1.4-1.4h5.1l12.8-25.3c0.3-0.7,1.2-1,1.9-0.6
			c0.7,0.3,1,1.2,0.6,1.9l-13.2,26.1L232,203.9z"/>
		<path class="st11" d="M250.5,247.1c-0.5,0-1.1-0.3-1.3-0.8l-18.4-42.8c-0.3-0.7,0-1.5,0.7-1.8c0.7-0.3,1.5,0,1.8,0.7l18.4,42.8
			c0.3,0.7,0,1.5-0.7,1.8C250.8,247,250.6,247.1,250.5,247.1z"/>
	</g>
</g>
</svg>