<?xml version="1.0" encoding="utf-8"?>
<!-- Generator: Adobe Illustrator 23.0.0, SVG Export Plug-In . SVG Version: 6.00 Build 0)  -->
<svg version="1.1" id="Vrstva_1" xmlns="http://www.w3.org/2000/svg" xmlns:xlink="http://www.w3.org/1999/xlink" x="0px" y="0px"
	 viewBox="0 0 60 60" style="enable-background:new 0 0 60 60;" xml:space="preserve">
<style type="text/css">
	.st0{fill:#286140;}
	.st1{opacity:0.3;clip-path:url(#SVGID_3_);}
	.st2{fill:#D2C6B7;}
	.st3{opacity:0.15;}
	.st4{clip-path:url(#SVGID_6_);}
	.st5{opacity:0.5;}
	.st6{opacity:0.3;clip-path:url(#SVGID_8_);}
	.st7{clip-path:url(#SVGID_11_);}
	.st8{opacity:0.3;clip-path:url(#SVGID_12_);}
	.st9{opacity:0.3;clip-path:url(#SVGID_13_);}
	.st10{opacity:0.3;clip-path:url(#SVGID_14_);}
	.st11{fill:#FFFFFF;}
	.st12{fill:none;stroke:#286140;stroke-width:0.9155;stroke-linecap:round;stroke-miterlimit:10;}
</style>
<g>
	<g>
		<defs>
			<circle id="SVGID_7_" cx="30" cy="-33" r="29.62"/>
		</defs>
		<clipPath id="SVGID_3_">
			<use xlink:href="#SVGID_7_"  style="overflow:visible;"/>
		</clipPath>
		<g class="st1">
			<path d="M21.14-18.46l7.87,17.87c0,0,14.12,6.23,14.55,5.75c0.42-0.49,14.98-18.59,14.98-18.59L39.38-44.05l-12.93-3.68
				L21.14-18.46z"/>
		</g>
	</g>
</g>
<g>
	<g>
		<circle class="st0" cx="30" cy="30" r="29.62"/>
		<g>
			<defs>
				<circle id="SVGID_10_" cx="30" cy="30" r="29.62"/>
			</defs>
			<clipPath id="SVGID_6_">
				<use xlink:href="#SVGID_10_"  style="overflow:visible;"/>
			</clipPath>
			<g style="opacity:0.3;clip-path:url(#SVGID_6_);">
				<path d="M13.19,41.57l7.87,17.87c0,0,22.08,9.23,22.5,8.74C43.98,67.7,59.62,40.7,59.62,40.7L47.78,21.77l-10.06-9.83L34,15.59
					l-11.49-4.81l5.84,7.87l-13.9,2.29L13.19,41.57z"/>
			</g>
		</g>
		<g>
			<path class="st2" d="M28.55,28.28c0,0.23-0.02,0.43-0.08,0.65l-2.04-0.03v4.95c0,0.45,0.18,0.73,0.68,0.73h1.14
				c0.08,0.23,0.13,0.56,0.13,0.86c0,0.12,0,0.25-0.03,0.36c-0.55,0.07-1.19,0.12-1.85,0.12c-1.13,0-1.74-0.56-1.74-1.71v-5.3
				l-1.22,0.02c-0.05-0.22-0.07-0.41-0.07-0.65c0-0.21,0.02-0.4,0.07-0.63l1.22,0.03v-1.46c0-0.76,0.2-1.09,0.91-1.09h0.65
				l0.12,0.12v2.45l2.04-0.05C28.53,27.88,28.55,28.06,28.55,28.28z"/>
			<path class="st2" d="M34.97,27.67c0.23-0.05,0.45-0.07,0.65-0.07c0.3,0,0.6,0.03,0.86,0.13l0.05,0.07
				c-0.76,2.55-1.94,6.22-2.55,8.04c-0.38,0.07-0.83,0.08-1.24,0.08c-0.68,0-0.98-0.13-1.24-0.94l-2.28-7.18
				c0.36-0.17,0.69-0.25,0.98-0.25c0.48,0,0.79,0.18,0.93,0.73l1.11,3.64c0.26,0.83,0.53,1.9,0.65,2.4
				c0.03,0.13,0.05,0.13,0.15,0.13L34.97,27.67z"/>
		</g>
		<g>
			<path class="st2" d="M42.37,18.42h-9.71l6.24-6.24c0.39-0.39,0.39-1.02,0-1.41s-1.02-0.39-1.41,0L30,18.26l-7.49-7.49
				c-0.39-0.39-1.02-0.39-1.41,0s-0.39,1.02,0,1.41l6.24,6.24h-9.71c-3.13,0-5.68,2.55-5.68,5.68v14.26c0,3.13,2.55,5.68,5.68,5.68
				h24.75c3.13,0,5.68-2.55,5.68-5.68V24.1C48.06,20.97,45.51,18.42,42.37,18.42z M45.56,38.37c0,1.76-1.43,3.18-3.18,3.18H17.63
				c-1.76,0-3.18-1.43-3.18-3.18V24.1c0-1.76,1.43-3.18,3.18-3.18h24.75c1.76,0,3.18,1.43,3.18,3.18V38.37z"/>
			<path class="st2" d="M41.53,45.38H18.47c-0.69,0-1.25,0.56-1.25,1.25s0.56,1.25,1.25,1.25h23.06c0.69,0,1.25-0.56,1.25-1.25
				S42.22,45.38,41.53,45.38z"/>
		</g>
	</g>
	<g class="st3">
		<path d="M42.37,18.42h-9.71l6.24-6.24c0.39-0.39,0.39-1.02,0-1.41s-1.02-0.39-1.41,0l-7.33,7.33l0.77,2.82h11.44
			c1.76,0,3.18,1.43,3.18,3.18v14.26c0,1.76-1.43,3.18-3.18,3.18h-5.84l0.68,2.5h5.16c3.13,0,5.68-2.55,5.68-5.68V24.1
			C48.06,20.97,45.51,18.42,42.37,18.42z"/>
		<path d="M41.53,45.38h-3.96l0.68,2.5h3.28c0.69,0,1.25-0.56,1.25-1.25S42.22,45.38,41.53,45.38z"/>
	</g>
	<path class="st3" d="M34.53,34.18c0.62-1.92,1.43-4.47,2-6.38l-0.05-0.07c-0.26-0.1-0.56-0.13-0.86-0.13
		c-0.2,0-0.41,0.02-0.65,0.07l-1.14,3.95L34.53,34.18z"/>
</g>
</svg>
