<?xml version="1.0" encoding="utf-8"?>
<!-- Generator: Adobe Illustrator 23.0.0, SVG Export Plug-In . SVG Version: 6.00 Build 0)  -->
<svg version="1.1" id="Vrstva_1" xmlns="http://www.w3.org/2000/svg" xmlns:xlink="http://www.w3.org/1999/xlink" x="0px" y="0px"
	 viewBox="0 0 60 60" style="enable-background:new 0 0 60 60;" xml:space="preserve">
<style type="text/css">
	.st0{fill:#286140;}
	.st1{opacity:0.3;clip-path:url(#SVGID_3_);}
	.st2{fill:#D2C6B7;}
	.st3{opacity:0.15;}
	.st4{clip-path:url(#SVGID_6_);}
	.st5{opacity:0.5;}
	.st6{opacity:0.3;clip-path:url(#SVGID_8_);}
	.st7{clip-path:url(#SVGID_11_);}
	.st8{opacity:0.3;clip-path:url(#SVGID_12_);}
	.st9{opacity:0.3;clip-path:url(#SVGID_13_);}
	.st10{opacity:0.3;clip-path:url(#SVGID_14_);}
	.st11{fill:#FFFFFF;}
	.st12{fill:none;stroke:#286140;stroke-width:0.9155;stroke-linecap:round;stroke-miterlimit:10;}
</style>
<g>
	<circle class="st0" cx="30" cy="30" r="29.62"/>
	<g>
		<defs>
			<circle id="SVGID_1_" cx="30" cy="30" r="29.62"/>
		</defs>
		<clipPath id="SVGID_3_">
			<use xlink:href="#SVGID_1_"  style="overflow:visible;"/>
		</clipPath>
		<g class="st1">
			<path d="M11.18,29.14l14.99,32.09c0,0,16.96,7.42,17.38,6.93c0.42-0.49,15.48-25.73,15.48-25.73L48.7,25.91l-20-8.52L11.18,29.14
				z"/>
		</g>
	</g>
	<g>
		<circle class="st2" cx="30.89" cy="39.01" r="4.13"/>
		<path class="st2" d="M30.89,25.91c-5.38,0-10.16,3.24-12.17,8.24c-0.12,0.3-0.01,0.65,0.26,0.85l1.08,0.78
			c0.16,0.12,0.33,0.14,0.44,0.14c0.23,0,0.55-0.12,0.67-0.45c1.49-4.08,5.39-6.82,9.72-6.82c3.77,0,7.25,2.06,9.07,5.38
			c0.13,0.23,0.36,0.36,0.63,0.36c0.21,0,0.4-0.08,0.55-0.23l0.91-0.91c0.24-0.24,0.29-0.6,0.13-0.88
			C39.83,28.39,35.5,25.91,30.89,25.91z"/>
		<path class="st2" d="M30.89,16.86c-8.12,0-15.58,4.45-19.48,11.62c-0.23,0.43-0.1,0.98,0.31,1.28l0.6,0.43
			c0.17,0.12,0.37,0.19,0.58,0.19c0.37,0,0.72-0.21,0.89-0.54c3.4-6.31,9.95-10.24,17.09-10.24c6.13,0,11.77,2.81,15.48,7.72
			c0.19,0.26,0.49,0.41,0.81,0.41c0.27,0,0.52-0.1,0.71-0.29l0.52-0.52c0.36-0.36,0.4-0.92,0.1-1.3
			C44.27,20.05,37.85,16.86,30.89,16.86z"/>
	</g>
	<g class="st3">
		<path d="M32.52,42.8c1.47-0.64,2.49-2.09,2.49-3.79c0-2.28-1.85-4.13-4.13-4.13c-0.25,0-0.49,0.03-0.72,0.07L32.52,42.8z"/>
		<path d="M42.18,32.38c-2.35-3.99-6.68-6.47-11.3-6.47c-1.14,0-2.25,0.15-3.31,0.43l0.79,2.64c0.81-0.21,1.66-0.32,2.52-0.32
			c3.77,0,7.25,2.06,9.07,5.38c0.13,0.23,0.36,0.36,0.63,0.36c0.21,0,0.4-0.08,0.55-0.23l0.91-0.91
			C42.3,33.02,42.35,32.66,42.18,32.38z"/>
		<path d="M48.51,25.61c-4.24-5.56-10.66-8.75-17.62-8.75c-2.03,0-4.02,0.28-5.92,0.81l0.79,2.63c1.65-0.45,3.37-0.69,5.13-0.69
			c6.13,0,11.77,2.81,15.48,7.72c0.19,0.26,0.49,0.41,0.81,0.41c0.27,0,0.52-0.1,0.71-0.29l0.52-0.52
			C48.76,26.56,48.81,26,48.51,25.61z"/>
	</g>
</g>
</svg>
